<?xml version="1.0" encoding="UTF-8"?>
<svg width="164px" height="53px" viewBox="0 0 164 53" version="1.1" xmlns="http://www.w3.org/2000/svg" xmlns:xlink="http://www.w3.org/1999/xlink">
    <!-- Generator: Sketch 49.3 (51167) - http://www.bohemiancoding.com/sketch -->
    <title>Group 11</title>
    <desc>Created with Sketch.</desc>
    <defs></defs>
    <g id="Renewable-Exchnage-V2.0" stroke="none" stroke-width="1" fill="none" fill-rule="evenodd">
        <g id="Home---deadline-version" transform="translate(-54.000000, -18.000000)" fill="#333E48">
            <g id="Group-11" transform="translate(54.000000, 18.000000)">
                <path d="M5.93406667,10.656392 L5.93406667,11.778932 C3.93978462,11.778932 2.06009231,13.019132 2.06009231,16.012572 L2.06009231,22.514612 L0.900528205,22.514612 L0.900528205,10.819632 L2.06009231,10.819632 L2.06009231,13.111352 C2.84855385,11.263772 4.35714359,10.656392 5.93406667,10.656392" id="Fill-1"></path>
                <path d="M7.43088205,16.129278 L16.7557538,16.129278 C16.5002923,13.275758 14.504959,11.685758 12.2320872,11.685758 C9.58811282,11.685758 7.66321538,13.533338 7.43088205,16.129278 M17.9626256,16.714398 C17.9626256,16.902018 17.9384462,17.087518 17.9384462,17.275138 L7.43088205,17.275138 C7.70947179,19.917718 9.70375385,21.648698 12.3487795,21.648698 C14.2505487,21.648698 15.6887026,20.759358 16.3615231,19.520218 L17.3823179,20.127598 C16.431959,21.718658 14.6216513,22.772298 12.3246,22.772298 C8.75339487,22.772298 6.22506154,20.198618 6.22506154,16.667758 C6.22506154,13.229118 8.68295897,10.562158 12.2320872,10.562158 C15.7580872,10.562158 17.9626256,13.508958 17.9626256,16.714398" id="Fill-3"></path>
                <path d="M30.0108436,15.24015 L30.0108436,22.51387 L28.8281513,22.51387 L28.8281513,15.24015 C28.8281513,13.08941 27.5981513,11.68491 25.4177923,11.68491 C23.1449205,11.68491 21.3587923,13.18269 21.3587923,16.33937 L21.3587923,22.51387 L20.1992282,22.51387 L20.1992282,10.81995 L21.3587923,10.81995 L21.3587923,13.04277 C22.2397667,11.31179 23.7252282,10.56237 25.5113564,10.56237 C28.2709718,10.56237 30.0108436,12.41101 30.0108436,15.24015" id="Fill-5"></path>
                <path d="M33.3474026,16.129278 L42.6722744,16.129278 C42.4168128,13.275758 40.4214795,11.685758 38.1486077,11.685758 C35.5046333,11.685758 33.5797359,13.533338 33.3474026,16.129278 M43.8791462,16.714398 C43.8791462,16.902018 43.8549667,17.087518 43.8549667,17.275138 L33.3474026,17.275138 C33.6259923,19.917718 35.6202744,21.648698 38.2653,21.648698 C40.1670692,21.648698 41.6052231,20.759358 42.2780436,19.520218 L43.2988385,20.127598 C42.3484795,21.718658 40.5381718,22.772298 38.2411205,22.772298 C34.6699154,22.772298 32.1415821,20.198618 32.1415821,16.667758 C32.1415821,13.229118 34.5994795,10.562158 38.1486077,10.562158 C41.6746077,10.562158 43.8791462,13.508958 43.8791462,16.714398" id="Fill-7"></path>
                <polygon id="Fill-9" points="60.9353564 10.81995 57.2705872 22.51387 55.9943308 22.51387 52.7700487 12.55093 49.5457667 22.51387 48.2695103 22.51387 44.6057923 10.81995 45.834741 10.81995 48.9192026 20.99383 52.1666128 10.81995 53.3734846 10.81995 56.6208949 20.99383 59.7053564 10.81995"></polygon>
                <path d="M72.7130795,16.667546 C72.7130795,13.883986 70.5789769,11.685546 67.8193615,11.685546 C65.0586949,11.685546 62.9014641,13.883986 62.9014641,16.667546 C62.9014641,19.450046 65.0586949,21.648486 67.8193615,21.648486 C70.5789769,21.648486 72.7130795,19.450046 72.7130795,16.667546 Z M73.8957718,10.819526 L73.8957718,22.514506 L72.7130795,22.514506 L72.7130795,19.870866 C71.738541,21.625166 69.9524128,22.772086 67.7257974,22.772086 C64.4321308,22.772086 61.7177205,20.128446 61.7177205,16.667546 C61.7177205,13.205586 64.4321308,10.561946 67.7257974,10.561946 C69.9524128,10.561946 71.738541,11.708866 72.7130795,13.463166 L72.7130795,10.819526 L73.8957718,10.819526 Z" id="Fill-11"></path>
                <path d="M87.4782308,16.667546 C87.4782308,13.883986 85.321,11.685546 82.5603333,11.685546 C79.7996667,11.685546 77.6434872,13.883986 77.6434872,16.667546 C77.6434872,19.450046 79.7996667,21.648486 82.5603333,21.648486 C85.321,21.648486 87.4782308,19.450046 87.4782308,16.667546 M88.6388462,16.667546 C88.6388462,20.128446 85.9475641,22.772086 82.6307692,22.772086 C80.3799744,22.772086 78.5948974,21.601846 77.6434872,19.800906 L77.6434872,22.514506 L76.4839231,22.514506 L76.4839231,6.141746 L77.6434872,6.141746 L77.6434872,13.533126 C78.5948974,11.732186 80.3799744,10.561946 82.6307692,10.561946 C85.9475641,10.561946 88.6388462,13.205586 88.6388462,16.667546" id="Fill-13"></path>
                <polygon id="Fill-15" points="90.9590256 22.513658 92.119641 22.513658 92.119641 5.440238 90.9590256 5.440238"></polygon>
                <path d="M95.6287154,16.129278 L104.952536,16.129278 C104.698126,13.275758 102.702792,11.685758 100.428869,11.685758 C97.7859462,11.685758 95.8599974,13.533338 95.6287154,16.129278 M106.159408,16.714398 C106.159408,16.902018 106.135228,17.087518 106.135228,17.275138 L95.6287154,17.275138 C95.9062538,19.917718 97.9015872,21.648698 100.545562,21.648698 C102.447331,21.648698 103.885485,20.759358 104.558305,19.520218 L105.5791,20.127598 C104.628741,21.718658 102.819485,22.772298 100.522433,22.772298 C96.9501769,22.772298 94.4218436,20.198618 94.4218436,16.667758 C94.4218436,13.229118 96.8807923,10.562158 100.428869,10.562158 C103.955921,10.562158 106.159408,13.508958 106.159408,16.714398" id="Fill-17"></path>
                <path d="M9.65150513,34.305628 C9.29512051,32.244988 7.79704359,31.357768 6.25271026,31.357768 C4.32676154,31.357768 3.01896667,32.508928 2.66258205,34.305628 L9.65150513,34.305628 Z M6.48924872,39.243108 C7.91688974,39.243108 8.98604359,38.596508 9.55688974,37.758048 L11.6720692,39.004608 C10.5787359,40.633828 8.79681282,41.616448 6.46612051,41.616448 C2.54378718,41.616448 -0.000315384615,38.908148 -0.000315384615,35.312628 C-0.000315384615,31.765868 2.54378718,29.008808 6.27583846,29.008808 C9.81760769,29.008808 12.2429154,31.884588 12.2429154,35.337008 C12.2429154,35.696348 12.1956077,36.080068 12.1472487,36.415028 L2.68676154,36.415028 C3.09045385,38.284868 4.58853077,39.243108 6.48924872,39.243108 Z" id="Fill-18"></path>
                <polygon id="Fill-19" points="21.5605333 41.305338 18.6127385 37.206318 15.6407641 41.305338 12.6467128 41.305338 17.1146615 35.144618 12.8832513 29.319918 15.8552256 29.319918 18.5896103 33.108358 21.3229436 29.319918 24.3180462 29.319918 20.0876872 35.168998 24.5325077 41.305338"></polygon>
                <path d="M24.7451821,35.31284 C24.7451821,31.7417 27.432259,29.00902 31.0213359,29.00902 C33.3520282,29.00902 35.371541,30.2312 36.3229513,32.10104 L34.1121051,33.39424 C33.5885667,32.26852 32.4247974,31.54984 30.9971564,31.54984 C28.9061564,31.54984 27.3124128,33.15574 27.3124128,35.31284 C27.3124128,37.46994 28.9061564,39.07584 30.9971564,39.07584 C32.4247974,39.07584 33.5885667,38.33384 34.1594128,37.23038 L36.370259,38.50026 C35.371541,40.39448 33.3520282,41.61666 31.0213359,41.61666 C27.432259,41.61666 24.7451821,38.86066 24.7451821,35.31284" id="Fill-20"></path>
                <path d="M49.0407308,33.946394 L49.0407308,41.304914 L46.4735,41.304914 L46.4735,34.210334 C46.4735,32.388194 45.4264231,31.429954 43.8106026,31.429954 C42.1232949,31.429954 40.7913205,32.435894 40.7913205,34.881314 L40.7913205,41.304914 L38.2240897,41.304914 L38.2240897,24.526174 L40.7913205,24.526174 L40.7913205,30.854374 C41.5755769,29.607814 42.8591923,29.008914 44.4760641,29.008914 C47.1379103,29.008914 49.0407308,30.831054 49.0407308,33.946394" id="Fill-21"></path>
                <path d="M61.2115282,35.31284 C61.2115282,33.08366 59.5946564,31.47776 57.4552974,31.47776 C55.3159385,31.47776 53.6990667,33.08366 53.6990667,35.31284 C53.6990667,37.54202 55.3159385,39.14792 57.4552974,39.14792 C59.5946564,39.14792 61.2115282,37.54202 61.2115282,35.31284 Z M63.778759,29.32066 L63.778759,41.30502 L61.2115282,41.30502 L61.2115282,39.57934 C60.3084769,40.85028 58.9060667,41.61666 57.0516051,41.61666 C53.8178615,41.61666 51.1318359,38.86066 51.1318359,35.31284 C51.1318359,31.7417 53.8178615,29.00902 57.0516051,29.00902 C58.9060667,29.00902 60.3084769,29.7754 61.2115282,31.02196 L61.2115282,29.32066 L63.778759,29.32066 Z" id="Fill-22"></path>
                <path d="M77.2333821,33.946394 L77.2333821,41.304914 L74.6661513,41.304914 L74.6661513,34.210334 C74.6661513,32.388194 73.6190744,31.429954 72.0022026,31.429954 C70.3148949,31.429954 68.9839718,32.435894 68.9839718,34.881314 L68.9839718,41.304914 L66.416741,41.304914 L66.416741,29.320554 L68.9839718,29.320554 L68.9839718,30.854374 C69.7682282,29.607814 71.0518436,29.008914 72.6687154,29.008914 C75.3305615,29.008914 77.2333821,30.831054 77.2333821,33.946394" id="Fill-23"></path>
                <path d="M89.4513821,35.192742 C89.4513821,33.035642 87.8345103,31.429742 85.6709718,31.429742 C83.5084846,31.429742 81.8916128,33.035642 81.8916128,35.192742 C81.8916128,37.349842 83.5084846,38.956802 85.6709718,38.956802 C87.8345103,38.956802 89.4513821,37.349842 89.4513821,35.192742 Z M91.9702538,29.320342 L91.9702538,40.753502 C91.9702538,44.612962 88.9751513,46.410722 85.8612538,46.410722 C83.2467154,46.410722 81.2261513,45.428102 80.2274333,43.510562 L82.4382795,42.216302 C82.9607667,43.247682 83.8406897,44.061762 85.9096128,44.061762 C88.1194077,44.061762 89.4513821,42.839582 89.4513821,40.753502 L89.4513821,39.291762 C88.5483308,40.586022 87.1459205,41.376782 85.3145872,41.376782 C81.9631,41.376782 79.3243821,38.619722 79.3243821,35.192742 C79.3243821,31.765762 81.9631,29.008702 85.3145872,29.008702 C87.1459205,29.008702 88.5483308,29.799462 89.4513821,31.094782 L89.4513821,29.320342 L91.9702538,29.320342 Z" id="Fill-24"></path>
                <path d="M103.713495,34.305628 C103.35711,32.244988 101.859033,31.357768 100.3147,31.357768 C98.3887513,31.357768 97.0809564,32.508928 96.7245718,34.305628 L103.713495,34.305628 Z M100.551238,39.243108 C101.978879,39.243108 103.048033,38.596508 103.618879,37.758048 L105.734059,39.004608 C104.640726,40.633828 102.858803,41.616448 100.52811,41.616448 C96.6047256,41.616448 94.0616744,38.908148 94.0616744,35.312628 C94.0616744,31.765868 96.6047256,29.008808 100.337828,29.008808 C103.879597,29.008808 106.304905,31.884588 106.304905,35.337008 C106.304905,35.696348 106.257597,36.080068 106.209238,36.415028 L96.7477,36.415028 C97.1524436,38.284868 98.6505205,39.243108 100.551238,39.243108 Z" id="Fill-25"></path>
                <polygon id="Fill-26" points="146.875667 6.93399 146.875667 13.86427 143.107872 10.39913 139.340077 6.93399 143.107872 3.46885 146.875667 0.00477"></polygon>
                <polygon id="Fill-27" points="148.439238 6.93399 148.439238 0.00477 152.207033 3.46885 155.974828 6.93399 152.207033 10.39913 148.439238 13.86427"></polygon>
                <polygon id="Fill-28" points="138.311397 17.2939 145.183628 17.2939 141.748038 21.09294 138.311397 24.89198 134.874756 21.09294 131.438115 17.2939"></polygon>
                <polygon id="Fill-29" points="138.311397 15.717362 131.438115 15.717362 134.874756 11.918322 138.311397 8.119282 141.748038 11.918322 145.183628 15.717362"></polygon>
                <polygon id="Fill-30" points="157.028108 17.2939 163.900338 17.2939 160.464749 21.09294 157.028108 24.89198 153.591467 21.09294 150.154826 17.2939"></polygon>
                <polygon id="Fill-31" points="157.028108 15.717362 150.154826 15.717362 153.591467 11.918322 157.028108 8.119282 160.464749 11.918322 163.900338 15.717362"></polygon>
                <polygon id="Fill-32" points="146.875667 26.056496 146.875667 32.986776 143.107872 29.522696 139.340077 26.056496 143.107872 22.591356 146.875667 19.127276"></polygon>
                <polygon id="Fill-33" points="148.439238 26.056496 148.439238 19.127276 152.207033 22.591356 155.974828 26.056496 152.207033 29.522696 148.439238 32.986776"></polygon>
                <polygon id="Fill-34" points="128.158956 6.929856 128.158956 13.859076 124.391162 10.394996 120.623367 6.929856 124.391162 3.464716 128.158956 -0.000424"></polygon>
                <polygon id="Fill-35" points="129.722528 6.929856 129.722528 -0.000424 133.490323 3.464716 137.258118 6.929856 133.490323 10.394996 129.722528 13.859076"></polygon>
                <polygon id="Fill-36" points="119.594687 17.294854 126.466918 17.294854 123.031328 21.093894 119.594687 24.891874 116.158046 21.093894 112.721405 17.294854"></polygon>
                <polygon id="Fill-37" points="119.594687 15.717362 112.721405 15.717362 116.158046 11.918322 119.594687 8.119282 123.031328 11.918322 126.466918 15.717362"></polygon>
                <polygon id="Fill-38" points="128.158956 26.056496 128.158956 32.985716 124.391162 29.521636 120.623367 26.056496 124.391162 22.591356 128.158956 19.127276"></polygon>
                <polygon id="Fill-39" points="129.722528 26.056496 129.722528 19.127276 133.490323 22.591356 137.258118 26.056496 133.490323 29.521636 129.722528 32.985716"></polygon>
                <polygon id="Fill-40" points="119.602887 36.4163 126.476169 36.4163 123.040579 40.21534 119.602887 44.01438 116.166246 40.21534 112.730656 36.4163"></polygon>
                <polygon id="Fill-41" points="119.602887 34.839762 112.730656 34.839762 116.166246 31.040722 119.602887 27.241682 123.040579 31.040722 126.476169 34.839762"></polygon>
                <polygon id="Fill-42" points="138.319597 36.4163 145.192879 36.4163 141.75729 40.21534 138.319597 44.01438 134.882956 40.21534 131.447367 36.4163"></polygon>
                <polygon id="Fill-43" points="138.319597 34.839762 131.447367 34.839762 134.882956 31.040722 138.319597 27.241682 141.75729 31.040722 145.192879 34.839762"></polygon>
                <polygon id="Fill-44" points="128.167156 45.18303 128.167156 52.11331 124.399362 48.64923 120.631567 45.18303 124.399362 41.71789 128.167156 38.25381"></polygon>
                <polygon id="Fill-45" points="129.731779 45.18303 129.731779 38.25381 133.498523 41.71789 137.266318 45.18303 133.498523 48.64923 129.731779 52.11331"></polygon>
            </g>
        </g>
    </g>
</svg>